<?xml version="1.0" encoding="utf-8" standalone="no"?>
<!DOCTYPE svg PUBLIC "-//W3C//DTD SVG 1.1//EN"
  "http://www.w3.org/Graphics/SVG/1.1/DTD/svg11.dtd">
<svg xmlns:xlink="http://www.w3.org/1999/xlink" width="360pt" height="360pt" viewBox="0 0 360 360" xmlns="http://www.w3.org/2000/svg" version="1.1">
 <metadata>
  <rdf:RDF xmlns:dc="http://purl.org/dc/elements/1.1/" xmlns:cc="http://creativecommons.org/ns#" xmlns:rdf="http://www.w3.org/1999/02/22-rdf-syntax-ns#">
   <cc:Work>
    <dc:type rdf:resource="http://purl.org/dc/dcmitype/StillImage"/>
    <dc:date>2024-12-07T16:30:43.771434</dc:date>
    <dc:format>image/svg+xml</dc:format>
    <dc:creator>
     <cc:Agent>
      <dc:title>Matplotlib v3.8.2, https://matplotlib.org/</dc:title>
     </cc:Agent>
    </dc:creator>
   </cc:Work>
  </rdf:RDF>
 </metadata>
 <defs>
  <style type="text/css">*{stroke-linejoin: round; stroke-linecap: butt}</style>
 </defs>
 <g id="figure_1">
  <g id="patch_1">
   <path d="M 0 360 
L 360 360 
L 360 0 
L 0 0 
z
" style="fill: #ffffff"/>
  </g>
  <g id="axes_1">
   <g id="patch_2">
    <path d="M 81.482 239.954024 
L 337.302527 239.954024 
L 337.302527 10.8 
L 81.482 10.8 
z
" style="fill: #ffffff"/>
   </g>
   <g id="PolyCollection_1">
    <path d="M 102.794886 229.537932 
L 101.315073 229.537932 
L 101.266007 227.433671 
L 101.223435 225.32941 
L 101.185615 223.225149 
L 101.149598 221.120888 
L 101.111449 219.016627 
L 101.066635 216.912366 
L 101.010523 214.808105 
L 100.938932 212.703844 
L 100.848671 210.599583 
L 100.737973 208.495322 
L 100.606773 206.391061 
L 100.45677 204.2868 
L 100.291281 202.182539 
L 100.114877 200.078278 
L 99.932879 197.974017 
L 99.750772 195.869756 
L 99.573623 193.765495 
L 99.40559 191.661234 
L 99.249585 189.556973 
L 99.107122 187.452712 
L 98.978352 185.348451 
L 98.862265 183.24419 
L 98.757 181.139929 
L 98.660207 179.035668 
L 98.569399 176.931407 
L 98.482253 174.827146 
L 98.396823 172.722885 
L 98.311668 170.618624 
L 98.225886 168.514363 
L 98.139082 166.410102 
L 98.051277 164.305841 
L 97.962789 162.20158 
L 97.874083 160.097319 
L 97.785619 157.993058 
L 97.697698 155.888797 
L 97.610318 153.784536 
L 97.52307 151.680275 
L 97.435073 149.576014 
L 97.344976 147.471753 
L 97.251032 145.367492 
L 97.151243 143.263231 
L 97.043554 141.15897 
L 96.926075 139.054709 
L 96.797295 136.950448 
L 96.656239 134.846187 
L 96.502556 132.741926 
L 96.336508 130.637665 
L 96.158878 128.533404 
L 95.970819 126.429143 
L 95.773687 124.324882 
L 95.568903 122.220621 
L 95.357876 120.11636 
L 95.142018 118.012099 
L 94.922837 115.907838 
L 94.702094 113.803577 
L 94.481966 111.699316 
L 94.265173 109.595055 
L 94.055038 107.490794 
L 93.855437 105.386533 
L 93.670656 103.282272 
L 93.505185 101.178011 
L 93.363469 99.07375 
L 93.24968 96.969489 
L 93.16754 94.865228 
L 93.120204 92.760966 
L 93.110206 90.656705 
L 93.139443 88.552444 
L 93.209161 86.448183 
L 93.31992 84.343922 
L 93.471511 82.239661 
L 93.662851 80.1354 
L 93.891848 78.031139 
L 94.15531 75.926878 
L 94.44891 73.822617 
L 94.767263 71.718356 
L 95.10412 69.614095 
L 95.452691 67.509834 
L 95.806053 65.405573 
L 96.157607 63.301312 
L 96.501532 61.197051 
L 96.833167 59.09279 
L 97.149287 56.988529 
L 97.448223 54.884268 
L 97.729825 52.780007 
L 97.995275 50.675746 
L 98.246772 48.571485 
L 98.487138 46.467224 
L 98.719396 44.362963 
L 98.946364 42.258702 
L 99.170325 40.154441 
L 99.392784 38.05018 
L 99.614349 35.945919 
L 99.834726 33.841658 
L 100.052807 31.737397 
L 100.266851 29.633136 
L 100.474697 27.528875 
L 100.674002 25.424614 
L 100.86247 23.320353 
L 101.038044 21.216092 
L 103.071914 21.216092 
L 103.071914 21.216092 
L 103.247489 23.320353 
L 103.435957 25.424614 
L 103.635262 27.528875 
L 103.843108 29.633136 
L 104.057152 31.737397 
L 104.275233 33.841658 
L 104.495609 35.945919 
L 104.717175 38.05018 
L 104.939634 40.154441 
L 105.163595 42.258702 
L 105.390563 44.362963 
L 105.622821 46.467224 
L 105.863187 48.571485 
L 106.114684 50.675746 
L 106.380134 52.780007 
L 106.661736 54.884268 
L 106.960672 56.988529 
L 107.276792 59.09279 
L 107.608427 61.197051 
L 107.952352 63.301312 
L 108.303906 65.405573 
L 108.657268 67.509834 
L 109.005839 69.614095 
L 109.342696 71.718356 
L 109.661048 73.822617 
L 109.954649 75.926878 
L 110.218111 78.031139 
L 110.447108 80.1354 
L 110.638448 82.239661 
L 110.790039 84.343922 
L 110.900797 86.448183 
L 110.970516 88.552444 
L 110.999753 90.656705 
L 110.989755 92.760966 
L 110.942419 94.865228 
L 110.860279 96.969489 
L 110.74649 99.07375 
L 110.604773 101.178011 
L 110.439302 103.282272 
L 110.254522 105.386533 
L 110.05492 107.490794 
L 109.844786 109.595055 
L 109.627993 111.699316 
L 109.407865 113.803577 
L 109.187122 115.907838 
L 108.967941 118.012099 
L 108.752082 120.11636 
L 108.541055 122.220621 
L 108.336272 124.324882 
L 108.13914 126.429143 
L 107.951081 128.533404 
L 107.773451 130.637665 
L 107.607403 132.741926 
L 107.45372 134.846187 
L 107.312664 136.950448 
L 107.183884 139.054709 
L 107.066405 141.15897 
L 106.958716 143.263231 
L 106.858927 145.367492 
L 106.764983 147.471753 
L 106.674886 149.576014 
L 106.586889 151.680275 
L 106.499641 153.784536 
L 106.412261 155.888797 
L 106.32434 157.993058 
L 106.235876 160.097319 
L 106.14717 162.20158 
L 106.058682 164.305841 
L 105.970877 166.410102 
L 105.884073 168.514363 
L 105.798291 170.618624 
L 105.713136 172.722885 
L 105.627706 174.827146 
L 105.54056 176.931407 
L 105.449752 179.035668 
L 105.352959 181.139929 
L 105.247694 183.24419 
L 105.131607 185.348451 
L 105.002837 187.452712 
L 104.860373 189.556973 
L 104.704369 191.661234 
L 104.536336 193.765495 
L 104.359187 195.869756 
L 104.17708 197.974017 
L 103.995082 200.078278 
L 103.818678 202.182539 
L 103.653188 204.2868 
L 103.503186 206.391061 
L 103.371986 208.495322 
L 103.261288 210.599583 
L 103.171027 212.703844 
L 103.099436 214.808105 
L 103.043324 216.912366 
L 102.99851 219.016627 
L 102.960361 221.120888 
L 102.924344 223.225149 
L 102.886524 225.32941 
L 102.843952 227.433671 
L 102.794886 229.537932 
z
" clip-path="url(#pf9edcdf67f)" style="fill: #6a5acd; fill-opacity: 0.3"/>
   </g>
   <g id="PolyCollection_2">
    <path d="M 138.573981 229.537932 
L 137.094168 229.537932 
L 137.045102 227.433671 
L 137.002529 225.32941 
L 136.96471 223.225149 
L 136.928693 221.120888 
L 136.890544 219.016627 
L 136.84573 216.912366 
L 136.789617 214.808105 
L 136.718026 212.703844 
L 136.627765 210.599583 
L 136.517068 208.495322 
L 136.385867 206.391061 
L 136.235865 204.2868 
L 136.070376 202.182539 
L 135.893971 200.078278 
L 135.711974 197.974017 
L 135.529867 195.869756 
L 135.352717 193.765495 
L 135.184685 191.661234 
L 135.02868 189.556973 
L 134.886217 187.452712 
L 134.757447 185.348451 
L 134.64136 183.24419 
L 134.536095 181.139929 
L 134.439302 179.035668 
L 134.348494 176.931407 
L 134.261347 174.827146 
L 134.175917 172.722885 
L 134.090762 170.618624 
L 134.004981 168.514363 
L 133.918176 166.410102 
L 133.830372 164.305841 
L 133.741883 162.20158 
L 133.653177 160.097319 
L 133.564714 157.993058 
L 133.476793 155.888797 
L 133.389413 153.784536 
L 133.302165 151.680275 
L 133.214168 149.576014 
L 133.12407 147.471753 
L 133.030127 145.367492 
L 132.930338 143.263231 
L 132.822649 141.15897 
L 132.70517 139.054709 
L 132.57639 136.950448 
L 132.435334 134.846187 
L 132.281651 132.741926 
L 132.115603 130.637665 
L 131.937972 128.533404 
L 131.749913 126.429143 
L 131.552782 124.324882 
L 131.347998 122.220621 
L 131.136971 120.11636 
L 130.921112 118.012099 
L 130.701931 115.907838 
L 130.481189 113.803577 
L 130.26106 111.699316 
L 130.044268 109.595055 
L 129.834133 107.490794 
L 129.634531 105.386533 
L 129.449751 103.282272 
L 129.28428 101.178011 
L 129.142564 99.07375 
L 129.028775 96.969489 
L 128.946634 94.865228 
L 128.899298 92.760966 
L 128.8893 90.656705 
L 128.918538 88.552444 
L 128.988256 86.448183 
L 129.099014 84.343922 
L 129.250606 82.239661 
L 129.441945 80.1354 
L 129.670943 78.031139 
L 129.934405 75.926878 
L 130.228005 73.822617 
L 130.546357 71.718356 
L 130.883215 69.614095 
L 131.231786 67.509834 
L 131.585148 65.405573 
L 131.936702 63.301312 
L 132.280626 61.197051 
L 132.612262 59.09279 
L 132.928382 56.988529 
L 133.227317 54.884268 
L 133.508919 52.780007 
L 133.77437 50.675746 
L 134.025866 48.571485 
L 134.266233 46.467224 
L 134.49849 44.362963 
L 134.725459 42.258702 
L 134.94942 40.154441 
L 135.171879 38.05018 
L 135.393444 35.945919 
L 135.61382 33.841658 
L 135.831902 31.737397 
L 136.045946 29.633136 
L 136.253792 27.528875 
L 136.453097 25.424614 
L 136.641565 23.320353 
L 136.817139 21.216092 
L 138.851009 21.216092 
L 138.851009 21.216092 
L 139.026584 23.320353 
L 139.215051 25.424614 
L 139.414357 27.528875 
L 139.622202 29.633136 
L 139.836246 31.737397 
L 140.054328 33.841658 
L 140.274704 35.945919 
L 140.49627 38.05018 
L 140.718729 40.154441 
L 140.942689 42.258702 
L 141.169658 44.362963 
L 141.401916 46.467224 
L 141.642282 48.571485 
L 141.893779 50.675746 
L 142.159229 52.780007 
L 142.440831 54.884268 
L 142.739766 56.988529 
L 143.055887 59.09279 
L 143.387522 61.197051 
L 143.731446 63.301312 
L 144.083 65.405573 
L 144.436362 67.509834 
L 144.784934 69.614095 
L 145.121791 71.718356 
L 145.440143 73.822617 
L 145.733743 75.926878 
L 145.997205 78.031139 
L 146.226203 80.1354 
L 146.417542 82.239661 
L 146.569134 84.343922 
L 146.679892 86.448183 
L 146.749611 88.552444 
L 146.778848 90.656705 
L 146.76885 92.760966 
L 146.721514 94.865228 
L 146.639374 96.969489 
L 146.525585 99.07375 
L 146.383868 101.178011 
L 146.218397 103.282272 
L 146.033617 105.386533 
L 145.834015 107.490794 
L 145.62388 109.595055 
L 145.407088 111.699316 
L 145.186959 113.803577 
L 144.966217 115.907838 
L 144.747036 118.012099 
L 144.531177 120.11636 
L 144.32015 122.220621 
L 144.115366 124.324882 
L 143.918235 126.429143 
L 143.730176 128.533404 
L 143.552545 130.637665 
L 143.386497 132.741926 
L 143.232814 134.846187 
L 143.091759 136.950448 
L 142.962978 139.054709 
L 142.8455 141.15897 
L 142.73781 143.263231 
L 142.638021 145.367492 
L 142.544078 147.471753 
L 142.453981 149.576014 
L 142.365983 151.680275 
L 142.278735 153.784536 
L 142.191356 155.888797 
L 142.103434 157.993058 
L 142.014971 160.097319 
L 141.926265 162.20158 
L 141.837777 164.305841 
L 141.749972 166.410102 
L 141.663168 168.514363 
L 141.577386 170.618624 
L 141.492231 172.722885 
L 141.406801 174.827146 
L 141.319654 176.931407 
L 141.228846 179.035668 
L 141.132053 181.139929 
L 141.026789 183.24419 
L 140.910702 185.348451 
L 140.781931 187.452712 
L 140.639468 189.556973 
L 140.483464 191.661234 
L 140.315431 193.765495 
L 140.138281 195.869756 
L 139.956174 197.974017 
L 139.774177 200.078278 
L 139.597773 202.182539 
L 139.432283 204.2868 
L 139.282281 206.391061 
L 139.15108 208.495322 
L 139.040383 210.599583 
L 138.950122 212.703844 
L 138.878531 214.808105 
L 138.822418 216.912366 
L 138.777604 219.016627 
L 138.739455 221.120888 
L 138.703438 223.225149 
L 138.665619 225.32941 
L 138.623047 227.433671 
L 138.573981 229.537932 
z
" clip-path="url(#pf9edcdf67f)" style="fill: #6a5acd; fill-opacity: 0.3"/>
   </g>
   <g id="PolyCollection_3">
    <path d="M 174.353075 229.537932 
L 172.873262 229.537932 
L 172.824196 227.433671 
L 172.781624 225.32941 
L 172.743805 223.225149 
L 172.707787 221.120888 
L 172.669639 219.016627 
L 172.624825 216.912366 
L 172.568712 214.808105 
L 172.497121 212.703844 
L 172.40686 210.599583 
L 172.296163 208.495322 
L 172.164962 206.391061 
L 172.01496 204.2868 
L 171.84947 202.182539 
L 171.673066 200.078278 
L 171.491068 197.974017 
L 171.308961 195.869756 
L 171.131812 193.765495 
L 170.963779 191.661234 
L 170.807775 189.556973 
L 170.665311 187.452712 
L 170.536541 185.348451 
L 170.420454 183.24419 
L 170.315189 181.139929 
L 170.218396 179.035668 
L 170.127588 176.931407 
L 170.040442 174.827146 
L 169.955012 172.722885 
L 169.869857 170.618624 
L 169.784075 168.514363 
L 169.697271 166.410102 
L 169.609466 164.305841 
L 169.520978 162.20158 
L 169.432272 160.097319 
L 169.343809 157.993058 
L 169.255887 155.888797 
L 169.168508 153.784536 
L 169.08126 151.680275 
L 168.993262 149.576014 
L 168.903165 147.471753 
L 168.809222 145.367492 
L 168.709433 143.263231 
L 168.601743 141.15897 
L 168.484264 139.054709 
L 168.355484 136.950448 
L 168.214429 134.846187 
L 168.060746 132.741926 
L 167.894697 130.637665 
L 167.717067 128.533404 
L 167.529008 126.429143 
L 167.331877 124.324882 
L 167.127093 122.220621 
L 166.916066 120.11636 
L 166.700207 118.012099 
L 166.481026 115.907838 
L 166.260283 113.803577 
L 166.040155 111.699316 
L 165.823363 109.595055 
L 165.613228 107.490794 
L 165.413626 105.386533 
L 165.228846 103.282272 
L 165.063375 101.178011 
L 164.921658 99.07375 
L 164.807869 96.969489 
L 164.725729 94.865228 
L 164.678393 92.760966 
L 164.668395 90.656705 
L 164.697632 88.552444 
L 164.767351 86.448183 
L 164.878109 84.343922 
L 165.029701 82.239661 
L 165.22104 80.1354 
L 165.450037 78.031139 
L 165.7135 75.926878 
L 166.0071 73.822617 
L 166.325452 71.718356 
L 166.662309 69.614095 
L 167.010881 67.509834 
L 167.364242 65.405573 
L 167.715796 63.301312 
L 168.059721 61.197051 
L 168.391356 59.09279 
L 168.707476 56.988529 
L 169.006412 54.884268 
L 169.288014 52.780007 
L 169.553464 50.675746 
L 169.804961 48.571485 
L 170.045327 46.467224 
L 170.277585 44.362963 
L 170.504553 42.258702 
L 170.728514 40.154441 
L 170.950973 38.05018 
L 171.172539 35.945919 
L 171.392915 33.841658 
L 171.610996 31.737397 
L 171.825041 29.633136 
L 172.032886 27.528875 
L 172.232192 25.424614 
L 172.420659 23.320353 
L 172.596234 21.216092 
L 174.630104 21.216092 
L 174.630104 21.216092 
L 174.805678 23.320353 
L 174.994146 25.424614 
L 175.193451 27.528875 
L 175.401297 29.633136 
L 175.615341 31.737397 
L 175.833423 33.841658 
L 176.053799 35.945919 
L 176.275364 38.05018 
L 176.497823 40.154441 
L 176.721784 42.258702 
L 176.948753 44.362963 
L 177.18101 46.467224 
L 177.421376 48.571485 
L 177.672873 50.675746 
L 177.938323 52.780007 
L 178.219925 54.884268 
L 178.518861 56.988529 
L 178.834981 59.09279 
L 179.166617 61.197051 
L 179.510541 63.301312 
L 179.862095 65.405573 
L 180.215457 67.509834 
L 180.564028 69.614095 
L 180.900886 71.718356 
L 181.219238 73.822617 
L 181.512838 75.926878 
L 181.7763 78.031139 
L 182.005298 80.1354 
L 182.196637 82.239661 
L 182.348228 84.343922 
L 182.458987 86.448183 
L 182.528705 88.552444 
L 182.557942 90.656705 
L 182.547945 92.760966 
L 182.500608 94.865228 
L 182.418468 96.969489 
L 182.304679 99.07375 
L 182.162963 101.178011 
L 181.997492 103.282272 
L 181.812711 105.386533 
L 181.61311 107.490794 
L 181.402975 109.595055 
L 181.186183 111.699316 
L 180.966054 113.803577 
L 180.745311 115.907838 
L 180.526131 118.012099 
L 180.310272 120.11636 
L 180.099245 122.220621 
L 179.894461 124.324882 
L 179.69733 126.429143 
L 179.509271 128.533404 
L 179.33164 130.637665 
L 179.165592 132.741926 
L 179.011909 134.846187 
L 178.870853 136.950448 
L 178.742073 139.054709 
L 178.624594 141.15897 
L 178.516905 143.263231 
L 178.417116 145.367492 
L 178.323172 147.471753 
L 178.233075 149.576014 
L 178.145078 151.680275 
L 178.05783 153.784536 
L 177.97045 155.888797 
L 177.882529 157.993058 
L 177.794065 160.097319 
L 177.70536 162.20158 
L 177.616871 164.305841 
L 177.529066 166.410102 
L 177.442262 168.514363 
L 177.356481 170.618624 
L 177.271326 172.722885 
L 177.185896 174.827146 
L 177.098749 176.931407 
L 177.007941 179.035668 
L 176.911148 181.139929 
L 176.805883 183.24419 
L 176.689796 185.348451 
L 176.561026 187.452712 
L 176.418563 189.556973 
L 176.262558 191.661234 
L 176.094525 193.765495 
L 175.917376 195.869756 
L 175.735269 197.974017 
L 175.553272 200.078278 
L 175.376867 202.182539 
L 175.211378 204.2868 
L 175.061375 206.391061 
L 174.930175 208.495322 
L 174.819478 210.599583 
L 174.729217 212.703844 
L 174.657626 214.808105 
L 174.601513 216.912366 
L 174.556699 219.016627 
L 174.51855 221.120888 
L 174.482533 223.225149 
L 174.444714 225.32941 
L 174.402141 227.433671 
L 174.353075 229.537932 
z
" clip-path="url(#pf9edcdf67f)" style="fill: #6a5acd; fill-opacity: 0.3"/>
   </g>
   <g id="PolyCollection_4">
    <path d="M 210.375126 229.537932 
L 208.409401 229.537932 
L 208.342053 227.433671 
L 208.28084 225.32941 
L 208.223558 223.225149 
L 208.166719 221.120888 
L 208.10583 219.016627 
L 208.035818 216.912366 
L 207.951582 214.808105 
L 207.848581 212.703844 
L 207.723404 210.599583 
L 207.574226 208.495322 
L 207.401089 206.391061 
L 207.205965 204.2868 
L 206.992593 202.182539 
L 206.766094 200.078278 
L 206.532442 197.974017 
L 206.297838 195.869756 
L 206.068098 193.765495 
L 205.848117 191.661234 
L 205.641488 189.556973 
L 205.450309 187.452712 
L 205.275185 185.348451 
L 205.115403 183.24419 
L 204.969241 181.139929 
L 204.834339 179.035668 
L 204.708092 176.931407 
L 204.587995 174.827146 
L 204.471915 172.722885 
L 204.358275 170.618624 
L 204.246129 168.514363 
L 204.135161 166.410102 
L 204.025594 164.305841 
L 203.918054 162.20158 
L 203.813389 160.097319 
L 203.712469 157.993058 
L 203.615986 155.888797 
L 203.524269 153.784536 
L 203.43714 151.680275 
L 203.353826 149.576014 
L 203.272951 147.471753 
L 203.192595 145.367492 
L 203.110439 143.263231 
L 203.023965 141.15897 
L 202.930686 139.054709 
L 202.828381 136.950448 
L 202.715291 134.846187 
L 202.590263 132.741926 
L 202.45283 130.637665 
L 202.303223 128.533404 
L 202.142342 126.429143 
L 201.971714 124.324882 
L 201.793453 122.220621 
L 201.610246 120.11636 
L 201.42536 118.012099 
L 201.24267 115.907838 
L 201.066658 113.803577 
L 200.902362 111.699316 
L 200.755242 109.595055 
L 200.630954 107.490794 
L 200.535026 105.386533 
L 200.472489 103.282272 
L 200.44749 101.178011 
L 200.462972 99.07375 
L 200.520456 96.969489 
L 200.619979 94.865228 
L 200.760184 92.760966 
L 200.938567 90.656705 
L 201.15181 88.552444 
L 201.396151 86.448183 
L 201.667731 84.343922 
L 201.962844 82.239661 
L 202.278069 80.1354 
L 202.610274 78.031139 
L 202.956511 75.926878 
L 203.313834 73.822617 
L 203.679117 71.718356 
L 204.048893 69.614095 
L 204.419281 67.509834 
L 204.786009 65.405573 
L 205.144541 63.301312 
L 205.490294 61.197051 
L 205.818907 59.09279 
L 206.126537 56.988529 
L 206.410126 54.884268 
L 206.667621 52.780007 
L 206.89811 50.675746 
L 207.101874 48.571485 
L 207.280334 46.467224 
L 207.435916 44.362963 
L 207.571829 42.258702 
L 207.691799 40.154441 
L 207.799769 38.05018 
L 207.899587 35.945919 
L 207.994726 33.841658 
L 208.088054 31.737397 
L 208.181661 29.633136 
L 208.276781 27.528875 
L 208.373793 25.424614 
L 208.472297 23.320353 
L 208.571264 21.216092 
L 210.213263 21.216092 
L 210.213263 21.216092 
L 210.31223 23.320353 
L 210.410734 25.424614 
L 210.507745 27.528875 
L 210.602866 29.633136 
L 210.696473 31.737397 
L 210.789801 33.841658 
L 210.88494 35.945919 
L 210.984758 38.05018 
L 211.092728 40.154441 
L 211.212698 42.258702 
L 211.348611 44.362963 
L 211.504192 46.467224 
L 211.682653 48.571485 
L 211.886417 50.675746 
L 212.116906 52.780007 
L 212.3744 54.884268 
L 212.65799 56.988529 
L 212.96562 59.09279 
L 213.294233 61.197051 
L 213.639986 63.301312 
L 213.998518 65.405573 
L 214.365246 67.509834 
L 214.735634 69.614095 
L 215.10541 71.718356 
L 215.470693 73.822617 
L 215.828016 75.926878 
L 216.174252 78.031139 
L 216.506458 80.1354 
L 216.821683 82.239661 
L 217.116796 84.343922 
L 217.388376 86.448183 
L 217.632717 88.552444 
L 217.84596 90.656705 
L 218.024343 92.760966 
L 218.164548 94.865228 
L 218.26407 96.969489 
L 218.321555 99.07375 
L 218.337037 101.178011 
L 218.312038 103.282272 
L 218.249501 105.386533 
L 218.153573 107.490794 
L 218.029285 109.595055 
L 217.882165 111.699316 
L 217.717869 113.803577 
L 217.541857 115.907838 
L 217.359167 118.012099 
L 217.174281 120.11636 
L 216.991073 122.220621 
L 216.812813 124.324882 
L 216.642185 126.429143 
L 216.481304 128.533404 
L 216.331696 130.637665 
L 216.194263 132.741926 
L 216.069236 134.846187 
L 215.956146 136.950448 
L 215.853841 139.054709 
L 215.760562 141.15897 
L 215.674088 143.263231 
L 215.591932 145.367492 
L 215.511576 147.471753 
L 215.4307 149.576014 
L 215.347387 151.680275 
L 215.260258 153.784536 
L 215.168541 155.888797 
L 215.072058 157.993058 
L 214.971138 160.097319 
L 214.866473 162.20158 
L 214.758933 164.305841 
L 214.649366 166.410102 
L 214.538398 168.514363 
L 214.426252 170.618624 
L 214.312612 172.722885 
L 214.196532 174.827146 
L 214.076435 176.931407 
L 213.950188 179.035668 
L 213.815286 181.139929 
L 213.669124 183.24419 
L 213.509342 185.348451 
L 213.334218 187.452712 
L 213.143039 189.556973 
L 212.93641 191.661234 
L 212.716429 193.765495 
L 212.486689 195.869756 
L 212.252085 197.974017 
L 212.018433 200.078278 
L 211.791934 202.182539 
L 211.578561 204.2868 
L 211.383438 206.391061 
L 211.210301 208.495322 
L 211.061123 210.599583 
L 210.935946 212.703844 
L 210.832945 214.808105 
L 210.748708 216.912366 
L 210.678697 219.016627 
L 210.617808 221.120888 
L 210.560969 223.225149 
L 210.503687 225.32941 
L 210.442474 227.433671 
L 210.375126 229.537932 
z
" clip-path="url(#pf9edcdf67f)" style="fill: #6a5acd; fill-opacity: 0.3"/>
   </g>
   <g id="PolyCollection_5">
    <path d="M 247.618328 229.537932 
L 242.724389 229.537932 
L 242.610594 227.951869 
L 242.527805 226.365805 
L 242.475752 224.779741 
L 242.451632 223.193677 
L 242.450137 221.607613 
L 242.463701 220.021549 
L 242.482948 218.435485 
L 242.497296 216.849421 
L 242.495692 215.263357 
L 242.467393 213.677294 
L 242.402761 212.09123 
L 242.293982 210.505166 
L 242.135666 208.919102 
L 241.925273 207.333038 
L 241.663312 205.746974 
L 241.353319 204.16091 
L 241.00158 202.574846 
L 240.616642 200.988782 
L 240.208642 199.402719 
L 239.788533 197.816655 
L 239.367268 196.230591 
L 238.955041 194.644527 
L 238.560657 193.058463 
L 238.1911 191.472399 
L 237.851329 189.886335 
L 237.54431 188.300271 
L 237.271265 186.714207 
L 237.03208 185.128144 
L 236.825797 183.54208 
L 236.651116 181.956016 
L 236.506838 180.369952 
L 236.392177 178.783888 
L 236.306929 177.197824 
L 236.251465 175.61176 
L 236.226584 174.025696 
L 236.23327 172.439632 
L 236.272376 170.853569 
L 236.344323 169.267505 
L 236.448843 167.681441 
L 236.584807 166.095377 
L 236.750168 164.509313 
L 236.942009 162.923249 
L 237.15669 161.337185 
L 237.390057 159.751121 
L 237.637693 158.165057 
L 237.895159 156.578994 
L 238.158201 154.99293 
L 238.422903 153.406866 
L 238.685779 151.820802 
L 238.943806 150.234738 
L 239.194412 148.648674 
L 239.435451 147.06261 
L 239.665177 145.476546 
L 239.882234 143.890482 
L 240.085686 142.304419 
L 240.275062 140.718355 
L 240.450425 139.132291 
L 240.61243 137.546227 
L 240.76235 135.960163 
L 240.902058 134.374099 
L 241.033934 132.788035 
L 241.160706 131.201971 
L 241.285231 129.615907 
L 241.410233 128.029844 
L 241.538033 126.44378 
L 241.670312 124.857716 
L 241.80793 123.271652 
L 241.950827 121.685588 
L 242.098044 120.099524 
L 242.247829 118.51346 
L 242.397852 116.927396 
L 242.545471 115.341332 
L 242.688033 113.755269 
L 242.823174 112.169205 
L 242.949061 110.583141 
L 243.064576 108.997077 
L 243.1694 107.411013 
L 243.264004 105.824949 
L 243.349553 104.238885 
L 243.427735 102.652821 
L 243.500555 101.066757 
L 243.570096 99.480694 
L 243.63831 97.89463 
L 243.706834 96.308566 
L 243.776866 94.722502 
L 243.849099 93.136438 
L 243.92372 91.550374 
L 244.000468 89.96431 
L 244.078725 88.378246 
L 244.157634 86.792182 
L 244.236229 85.206118 
L 244.31354 83.620055 
L 244.388695 82.033991 
L 244.460972 80.447927 
L 244.529836 78.861863 
L 244.594938 77.275799 
L 244.65609 75.689735 
L 244.713237 74.103671 
L 244.76641 72.517607 
L 245.576306 72.517607 
L 245.576306 72.517607 
L 245.629479 74.103671 
L 245.686626 75.689735 
L 245.747779 77.275799 
L 245.81288 78.861863 
L 245.881744 80.447927 
L 245.954021 82.033991 
L 246.029176 83.620055 
L 246.106488 85.206118 
L 246.185082 86.792182 
L 246.263991 88.378246 
L 246.342248 89.96431 
L 246.418996 91.550374 
L 246.493617 93.136438 
L 246.56585 94.722502 
L 246.635882 96.308566 
L 246.704406 97.89463 
L 246.772621 99.480694 
L 246.842162 101.066757 
L 246.914981 102.652821 
L 246.993164 104.238885 
L 247.078712 105.824949 
L 247.173316 107.411013 
L 247.27814 108.997077 
L 247.393655 110.583141 
L 247.519543 112.169205 
L 247.654683 113.755269 
L 247.797245 115.341332 
L 247.944864 116.927396 
L 248.094887 118.51346 
L 248.244673 120.099524 
L 248.391889 121.685588 
L 248.534787 123.271652 
L 248.672404 124.857716 
L 248.804684 126.44378 
L 248.932484 128.029844 
L 249.057485 129.615907 
L 249.18201 131.201971 
L 249.308782 132.788035 
L 249.440658 134.374099 
L 249.580366 135.960163 
L 249.730286 137.546227 
L 249.892291 139.132291 
L 250.067654 140.718355 
L 250.25703 142.304419 
L 250.460482 143.890482 
L 250.677539 145.476546 
L 250.907265 147.06261 
L 251.148304 148.648674 
L 251.39891 150.234738 
L 251.656937 151.820802 
L 251.919813 153.406866 
L 252.184515 154.99293 
L 252.447557 156.578994 
L 252.705023 158.165057 
L 252.952659 159.751121 
L 253.186026 161.337185 
L 253.400707 162.923249 
L 253.592548 164.509313 
L 253.75791 166.095377 
L 253.893873 167.681441 
L 253.998393 169.267505 
L 254.07034 170.853569 
L 254.109446 172.439632 
L 254.116132 174.025696 
L 254.091252 175.61176 
L 254.035787 177.197824 
L 253.950539 178.783888 
L 253.835879 180.369952 
L 253.6916 181.956016 
L 253.516919 183.54208 
L 253.310636 185.128144 
L 253.071451 186.714207 
L 252.798407 188.300271 
L 252.491387 189.886335 
L 252.151616 191.472399 
L 251.782059 193.058463 
L 251.387676 194.644527 
L 250.975448 196.230591 
L 250.554183 197.816655 
L 250.134074 199.402719 
L 249.726075 200.988782 
L 249.341136 202.574846 
L 248.989397 204.16091 
L 248.679404 205.746974 
L 248.417443 207.333038 
L 248.20705 208.919102 
L 248.048735 210.505166 
L 247.939955 212.09123 
L 247.875323 213.677294 
L 247.847024 215.263357 
L 247.84542 216.849421 
L 247.859768 218.435485 
L 247.879015 220.021549 
L 247.892579 221.607613 
L 247.891084 223.193677 
L 247.866964 224.779741 
L 247.814912 226.365805 
L 247.732122 227.951869 
L 247.618328 229.537932 
z
" clip-path="url(#pf9edcdf67f)" style="fill: #6a5acd; fill-opacity: 0.3"/>
   </g>
   <g id="PolyCollection_6">
    <path d="M 283.555859 229.537932 
L 278.345046 229.537932 
L 278.254455 228.58628 
L 278.182666 227.634628 
L 278.130671 226.682976 
L 278.09883 225.731324 
L 278.086836 224.779672 
L 278.093699 223.82802 
L 278.117756 222.876368 
L 278.156706 221.924715 
L 278.207663 220.973063 
L 278.267233 220.021411 
L 278.331597 219.069759 
L 278.396617 218.118107 
L 278.457937 217.166455 
L 278.5111 216.214803 
L 278.551657 215.263151 
L 278.57529 214.311498 
L 278.577919 213.359846 
L 278.555821 212.408194 
L 278.505732 211.456542 
L 278.424956 210.50489 
L 278.311459 209.553238 
L 278.163955 208.601586 
L 277.981977 207.649934 
L 277.765934 206.698281 
L 277.517135 205.746629 
L 277.237798 204.794977 
L 276.931018 203.843325 
L 276.600707 202.891673 
L 276.251495 201.940021 
L 275.888603 200.988369 
L 275.517679 200.036717 
L 275.144612 199.085064 
L 274.775332 198.133412 
L 274.4156 197.18176 
L 274.070805 196.230108 
L 273.745774 195.278456 
L 273.44461 194.326804 
L 273.17057 193.375152 
L 272.925977 192.4235 
L 272.712192 191.471847 
L 272.529624 190.520195 
L 272.377797 189.568543 
L 272.25545 188.616891 
L 272.160673 187.665239 
L 272.091073 186.713587 
L 272.043941 185.761935 
L 272.016422 184.810283 
L 272.005679 183.85863 
L 272.009029 182.906978 
L 272.024053 181.955326 
L 272.048672 181.003674 
L 272.081188 180.052022 
L 272.12029 179.10037 
L 272.165028 178.148718 
L 272.214761 177.197066 
L 272.269089 176.245413 
L 272.32777 175.293761 
L 272.390636 174.342109 
L 272.457516 173.390457 
L 272.528168 172.438805 
L 272.602229 171.487153 
L 272.679186 170.535501 
L 272.758366 169.583849 
L 272.83896 168.632196 
L 272.920054 167.680544 
L 273.00069 166.728892 
L 273.079934 165.77724 
L 273.156957 164.825588 
L 273.231112 163.873936 
L 273.302019 162.922284 
L 273.369628 161.970632 
L 273.434271 161.018979 
L 273.496696 160.067327 
L 273.558075 159.115675 
L 273.619984 158.164023 
L 273.684357 157.212371 
L 273.75342 156.260719 
L 273.829595 155.309067 
L 273.915393 154.357415 
L 274.013294 153.405762 
L 274.125618 152.45411 
L 274.254409 151.502458 
L 274.401321 150.550806 
L 274.56752 149.599154 
L 274.75362 148.647502 
L 274.959631 147.69585 
L 275.184948 146.744198 
L 275.428361 145.792545 
L 275.6881 144.840893 
L 275.961899 143.889241 
L 276.247086 142.937589 
L 276.540686 141.985937 
L 276.839527 141.034285 
L 277.140362 140.082633 
L 277.439972 139.130981 
L 277.735274 138.179328 
L 278.023405 137.227676 
L 278.301799 136.276024 
L 278.568237 135.324372 
L 283.332669 135.324372 
L 283.332669 135.324372 
L 283.599107 136.276024 
L 283.8775 137.227676 
L 284.165632 138.179328 
L 284.460933 139.130981 
L 284.760544 140.082633 
L 285.061379 141.034285 
L 285.36022 141.985937 
L 285.653819 142.937589 
L 285.939007 143.889241 
L 286.212806 144.840893 
L 286.472544 145.792545 
L 286.715958 146.744198 
L 286.941274 147.69585 
L 287.147286 148.647502 
L 287.333386 149.599154 
L 287.499585 150.550806 
L 287.646496 151.502458 
L 287.775287 152.45411 
L 287.887612 153.405762 
L 287.985512 154.357415 
L 288.071311 155.309067 
L 288.147486 156.260719 
L 288.216549 157.212371 
L 288.280922 158.164023 
L 288.34283 159.115675 
L 288.404209 160.067327 
L 288.466635 161.018979 
L 288.531278 161.970632 
L 288.598886 162.922284 
L 288.669794 163.873936 
L 288.743949 164.825588 
L 288.820971 165.77724 
L 288.900215 166.728892 
L 288.980852 167.680544 
L 289.061946 168.632196 
L 289.14254 169.583849 
L 289.22172 170.535501 
L 289.298676 171.487153 
L 289.372737 172.438805 
L 289.44339 173.390457 
L 289.51027 174.342109 
L 289.573136 175.293761 
L 289.631816 176.245413 
L 289.686144 177.197066 
L 289.735878 178.148718 
L 289.780615 179.10037 
L 289.819717 180.052022 
L 289.852234 181.003674 
L 289.876853 181.955326 
L 289.891876 182.906978 
L 289.895226 183.85863 
L 289.884484 184.810283 
L 289.856965 185.761935 
L 289.809832 186.713587 
L 289.740232 187.665239 
L 289.645456 188.616891 
L 289.523108 189.568543 
L 289.371281 190.520195 
L 289.188714 191.471847 
L 288.974928 192.4235 
L 288.730336 193.375152 
L 288.456295 194.326804 
L 288.155132 195.278456 
L 287.8301 196.230108 
L 287.485305 197.18176 
L 287.125573 198.133412 
L 286.756293 199.085064 
L 286.383226 200.036717 
L 286.012302 200.988369 
L 285.64941 201.940021 
L 285.300199 202.891673 
L 284.969887 203.843325 
L 284.663107 204.794977 
L 284.38377 205.746629 
L 284.134971 206.698281 
L 283.918928 207.649934 
L 283.736951 208.601586 
L 283.589447 209.553238 
L 283.47595 210.50489 
L 283.395174 211.456542 
L 283.345085 212.408194 
L 283.322986 213.359846 
L 283.325616 214.311498 
L 283.349249 215.263151 
L 283.389806 216.214803 
L 283.442968 217.166455 
L 283.504288 218.118107 
L 283.569308 219.069759 
L 283.633673 220.021411 
L 283.693242 220.973063 
L 283.7442 221.924715 
L 283.78315 222.876368 
L 283.807207 223.82802 
L 283.814069 224.779672 
L 283.802076 225.731324 
L 283.770235 226.682976 
L 283.718239 227.634628 
L 283.646451 228.58628 
L 283.555859 229.537932 
z
" clip-path="url(#pf9edcdf67f)" style="fill: #6a5acd; fill-opacity: 0.3"/>
   </g>
   <g id="PolyCollection_7">
    <path d="M 324.683119 229.537932 
L 308.775976 229.537932 
L 308.522363 229.000885 
L 308.302622 228.463837 
L 308.119422 227.926789 
L 307.974869 227.389741 
L 307.870457 226.852693 
L 307.80703 226.315645 
L 307.784774 225.778597 
L 307.803211 225.241549 
L 307.86123 224.704502 
L 307.957118 224.167454 
L 308.088622 223.630406 
L 308.253011 223.093358 
L 308.447158 222.55631 
L 308.667629 222.019262 
L 308.910769 221.482214 
L 309.172795 220.945166 
L 309.449887 220.408119 
L 309.738267 219.871071 
L 310.034275 219.334023 
L 310.334431 218.796975 
L 310.635486 218.259927 
L 310.93446 217.722879 
L 311.228664 217.185831 
L 311.515708 216.648783 
L 311.7935 216.111736 
L 312.060229 215.574688 
L 312.31434 215.03764 
L 312.554507 214.500592 
L 312.779589 213.963544 
L 312.988597 213.426496 
L 313.180648 212.889448 
L 313.354935 212.352401 
L 313.510688 211.815353 
L 313.647149 211.278305 
L 313.763554 210.741257 
L 313.859119 210.204209 
L 313.93304 209.667161 
L 313.984501 209.130113 
L 314.012687 208.593065 
L 314.016811 208.056018 
L 313.996146 207.51897 
L 313.950059 206.981922 
L 313.878058 206.444874 
L 313.779833 205.907826 
L 313.655301 205.370778 
L 313.504655 204.83373 
L 313.328396 204.296682 
L 313.127376 203.759635 
L 312.902823 203.222587 
L 312.65636 202.685539 
L 312.390017 202.148491 
L 312.106225 201.611443 
L 311.807809 201.074395 
L 311.497954 200.537347 
L 311.180173 200.000299 
L 310.858255 199.463252 
L 310.536203 198.926204 
L 310.218165 198.389156 
L 309.908358 197.852108 
L 309.610982 197.31506 
L 309.330132 196.778012 
L 309.069719 196.240964 
L 308.833377 195.703917 
L 308.624387 195.166869 
L 308.445607 194.629821 
L 308.29941 194.092773 
L 308.187631 193.555725 
L 308.111539 193.018677 
L 308.071811 192.481629 
L 308.068529 191.944581 
L 308.101195 191.407534 
L 308.168753 190.870486 
L 308.269637 190.333438 
L 308.401819 189.79639 
L 308.562875 189.259342 
L 308.750061 188.722294 
L 308.960386 188.185246 
L 309.190698 187.648198 
L 309.43776 187.111151 
L 309.698329 186.574103 
L 309.96923 186.037055 
L 310.247421 185.500007 
L 310.530045 184.962959 
L 310.814479 184.425911 
L 311.098367 183.888863 
L 311.379642 183.351815 
L 311.65654 182.814768 
L 311.927596 182.27772 
L 312.191643 181.740672 
L 312.447786 181.203624 
L 312.695388 180.666576 
L 312.934032 180.129528 
L 313.163498 179.59248 
L 313.383724 179.055433 
L 313.594774 178.518385 
L 313.796808 177.981337 
L 313.990046 177.444289 
L 314.174751 176.907241 
L 314.351197 176.370193 
L 319.107897 176.370193 
L 319.107897 176.370193 
L 319.284344 176.907241 
L 319.469049 177.444289 
L 319.662287 177.981337 
L 319.86432 178.518385 
L 320.075371 179.055433 
L 320.295597 179.59248 
L 320.525063 180.129528 
L 320.763707 180.666576 
L 321.011309 181.203624 
L 321.267452 181.740672 
L 321.531499 182.27772 
L 321.802555 182.814768 
L 322.079453 183.351815 
L 322.360728 183.888863 
L 322.644616 184.425911 
L 322.92905 184.962959 
L 323.211674 185.500007 
L 323.489864 186.037055 
L 323.760766 186.574103 
L 324.021335 187.111151 
L 324.268397 187.648198 
L 324.498708 188.185246 
L 324.709034 188.722294 
L 324.89622 189.259342 
L 325.057276 189.79639 
L 325.189457 190.333438 
L 325.290341 190.870486 
L 325.3579 191.407534 
L 325.390566 191.944581 
L 325.387284 192.481629 
L 325.347555 193.018677 
L 325.271464 193.555725 
L 325.159685 194.092773 
L 325.013488 194.629821 
L 324.834708 195.166869 
L 324.625718 195.703917 
L 324.389376 196.240964 
L 324.128962 196.778012 
L 323.848113 197.31506 
L 323.550737 197.852108 
L 323.24093 198.389156 
L 322.922892 198.926204 
L 322.60084 199.463252 
L 322.278922 200.000299 
L 321.961141 200.537347 
L 321.651286 201.074395 
L 321.352869 201.611443 
L 321.069078 202.148491 
L 320.802735 202.685539 
L 320.556272 203.222587 
L 320.331719 203.759635 
L 320.130699 204.296682 
L 319.95444 204.83373 
L 319.803793 205.370778 
L 319.679262 205.907826 
L 319.581037 206.444874 
L 319.509036 206.981922 
L 319.462949 207.51897 
L 319.442284 208.056018 
L 319.446408 208.593065 
L 319.474594 209.130113 
L 319.526055 209.667161 
L 319.599976 210.204209 
L 319.695541 210.741257 
L 319.811946 211.278305 
L 319.948407 211.815353 
L 320.10416 212.352401 
L 320.278447 212.889448 
L 320.470498 213.426496 
L 320.679506 213.963544 
L 320.904588 214.500592 
L 321.144755 215.03764 
L 321.398866 215.574688 
L 321.665595 216.111736 
L 321.943386 216.648783 
L 322.230431 217.185831 
L 322.524635 217.722879 
L 322.823609 218.259927 
L 323.124664 218.796975 
L 323.42482 219.334023 
L 323.720828 219.871071 
L 324.009208 220.408119 
L 324.286299 220.945166 
L 324.548326 221.482214 
L 324.791466 222.019262 
L 325.011937 222.55631 
L 325.206084 223.093358 
L 325.370473 223.630406 
L 325.501976 224.167454 
L 325.597865 224.704502 
L 325.655884 225.241549 
L 325.674321 225.778597 
L 325.652064 226.315645 
L 325.588638 226.852693 
L 325.484226 227.389741 
L 325.339673 227.926789 
L 325.156473 228.463837 
L 324.936732 229.000885 
L 324.683119 229.537932 
z
" clip-path="url(#pf9edcdf67f)" style="fill: #6a5acd; fill-opacity: 0.3"/>
   </g>
   <g id="matplotlib.axis_1">
    <g id="xtick_1">
     <g id="line2d_1">
      <defs>
       <path id="mc21d5dddb1" d="M 0 0 
L 0 -6 
" style="stroke: #000000; stroke-width: 3"/>
      </defs>
      <g>
       <use xlink:href="#mc21d5dddb1" x="102.054979" y="239.954024" style="stroke: #000000; stroke-width: 3"/>
      </g>
     </g>
     <g id="text_1">
      <!-- pos0 -->
      <g transform="translate(94.814826 299.18934) rotate(-60) scale(0.2 -0.2)">
       <defs>
        <path id="DejaVuSans-70" d="M 1159 525 
L 1159 -1331 
L 581 -1331 
L 581 3500 
L 1159 3500 
L 1159 2969 
Q 1341 3281 1617 3432 
Q 1894 3584 2278 3584 
Q 2916 3584 3314 3078 
Q 3713 2572 3713 1747 
Q 3713 922 3314 415 
Q 2916 -91 2278 -91 
Q 1894 -91 1617 61 
Q 1341 213 1159 525 
z
M 3116 1747 
Q 3116 2381 2855 2742 
Q 2594 3103 2138 3103 
Q 1681 3103 1420 2742 
Q 1159 2381 1159 1747 
Q 1159 1113 1420 752 
Q 1681 391 2138 391 
Q 2594 391 2855 752 
Q 3116 1113 3116 1747 
z
" transform="scale(0.015625)"/>
        <path id="DejaVuSans-6f" d="M 1959 3097 
Q 1497 3097 1228 2736 
Q 959 2375 959 1747 
Q 959 1119 1226 758 
Q 1494 397 1959 397 
Q 2419 397 2687 759 
Q 2956 1122 2956 1747 
Q 2956 2369 2687 2733 
Q 2419 3097 1959 3097 
z
M 1959 3584 
Q 2709 3584 3137 3096 
Q 3566 2609 3566 1747 
Q 3566 888 3137 398 
Q 2709 -91 1959 -91 
Q 1206 -91 779 398 
Q 353 888 353 1747 
Q 353 2609 779 3096 
Q 1206 3584 1959 3584 
z
" transform="scale(0.015625)"/>
        <path id="DejaVuSans-73" d="M 2834 3397 
L 2834 2853 
Q 2591 2978 2328 3040 
Q 2066 3103 1784 3103 
Q 1356 3103 1142 2972 
Q 928 2841 928 2578 
Q 928 2378 1081 2264 
Q 1234 2150 1697 2047 
L 1894 2003 
Q 2506 1872 2764 1633 
Q 3022 1394 3022 966 
Q 3022 478 2636 193 
Q 2250 -91 1575 -91 
Q 1294 -91 989 -36 
Q 684 19 347 128 
L 347 722 
Q 666 556 975 473 
Q 1284 391 1588 391 
Q 1994 391 2212 530 
Q 2431 669 2431 922 
Q 2431 1156 2273 1281 
Q 2116 1406 1581 1522 
L 1381 1569 
Q 847 1681 609 1914 
Q 372 2147 372 2553 
Q 372 3047 722 3315 
Q 1072 3584 1716 3584 
Q 2034 3584 2315 3537 
Q 2597 3491 2834 3397 
z
" transform="scale(0.015625)"/>
        <path id="DejaVuSans-30" d="M 2034 4250 
Q 1547 4250 1301 3770 
Q 1056 3291 1056 2328 
Q 1056 1369 1301 889 
Q 1547 409 2034 409 
Q 2525 409 2770 889 
Q 3016 1369 3016 2328 
Q 3016 3291 2770 3770 
Q 2525 4250 2034 4250 
z
M 2034 4750 
Q 2819 4750 3233 4129 
Q 3647 3509 3647 2328 
Q 3647 1150 3233 529 
Q 2819 -91 2034 -91 
Q 1250 -91 836 529 
Q 422 1150 422 2328 
Q 422 3509 836 4129 
Q 1250 4750 2034 4750 
z
" transform="scale(0.015625)"/>
       </defs>
       <use xlink:href="#DejaVuSans-70"/>
       <use xlink:href="#DejaVuSans-6f" x="63.476562"/>
       <use xlink:href="#DejaVuSans-73" x="124.658203"/>
       <use xlink:href="#DejaVuSans-30" x="176.757812"/>
      </g>
     </g>
    </g>
    <g id="xtick_2">
     <g id="line2d_2">
      <g>
       <use xlink:href="#mc21d5dddb1" x="137.834074" y="239.954024" style="stroke: #000000; stroke-width: 3"/>
      </g>
     </g>
     <g id="text_2">
      <!-- pos1 -->
      <g transform="translate(130.593921 299.18934) rotate(-60) scale(0.2 -0.2)">
       <defs>
        <path id="DejaVuSans-31" d="M 794 531 
L 1825 531 
L 1825 4091 
L 703 3866 
L 703 4441 
L 1819 4666 
L 2450 4666 
L 2450 531 
L 3481 531 
L 3481 0 
L 794 0 
L 794 531 
z
" transform="scale(0.015625)"/>
       </defs>
       <use xlink:href="#DejaVuSans-70"/>
       <use xlink:href="#DejaVuSans-6f" x="63.476562"/>
       <use xlink:href="#DejaVuSans-73" x="124.658203"/>
       <use xlink:href="#DejaVuSans-31" x="176.757812"/>
      </g>
     </g>
    </g>
    <g id="xtick_3">
     <g id="line2d_3">
      <g>
       <use xlink:href="#mc21d5dddb1" x="173.613169" y="239.954024" style="stroke: #000000; stroke-width: 3"/>
      </g>
     </g>
     <g id="text_3">
      <!-- pos2 -->
      <g transform="translate(166.373015 299.18934) rotate(-60) scale(0.2 -0.2)">
       <defs>
        <path id="DejaVuSans-32" d="M 1228 531 
L 3431 531 
L 3431 0 
L 469 0 
L 469 531 
Q 828 903 1448 1529 
Q 2069 2156 2228 2338 
Q 2531 2678 2651 2914 
Q 2772 3150 2772 3378 
Q 2772 3750 2511 3984 
Q 2250 4219 1831 4219 
Q 1534 4219 1204 4116 
Q 875 4013 500 3803 
L 500 4441 
Q 881 4594 1212 4672 
Q 1544 4750 1819 4750 
Q 2544 4750 2975 4387 
Q 3406 4025 3406 3419 
Q 3406 3131 3298 2873 
Q 3191 2616 2906 2266 
Q 2828 2175 2409 1742 
Q 1991 1309 1228 531 
z
" transform="scale(0.015625)"/>
       </defs>
       <use xlink:href="#DejaVuSans-70"/>
       <use xlink:href="#DejaVuSans-6f" x="63.476562"/>
       <use xlink:href="#DejaVuSans-73" x="124.658203"/>
       <use xlink:href="#DejaVuSans-32" x="176.757812"/>
      </g>
     </g>
    </g>
    <g id="xtick_4">
     <g id="line2d_4">
      <g>
       <use xlink:href="#mc21d5dddb1" x="209.392263" y="239.954024" style="stroke: #000000; stroke-width: 3"/>
      </g>
     </g>
     <g id="text_4">
      <!-- pos3 -->
      <g transform="translate(202.15211 299.18934) rotate(-60) scale(0.2 -0.2)">
       <defs>
        <path id="DejaVuSans-33" d="M 2597 2516 
Q 3050 2419 3304 2112 
Q 3559 1806 3559 1356 
Q 3559 666 3084 287 
Q 2609 -91 1734 -91 
Q 1441 -91 1130 -33 
Q 819 25 488 141 
L 488 750 
Q 750 597 1062 519 
Q 1375 441 1716 441 
Q 2309 441 2620 675 
Q 2931 909 2931 1356 
Q 2931 1769 2642 2001 
Q 2353 2234 1838 2234 
L 1294 2234 
L 1294 2753 
L 1863 2753 
Q 2328 2753 2575 2939 
Q 2822 3125 2822 3475 
Q 2822 3834 2567 4026 
Q 2313 4219 1838 4219 
Q 1578 4219 1281 4162 
Q 984 4106 628 3988 
L 628 4550 
Q 988 4650 1302 4700 
Q 1616 4750 1894 4750 
Q 2613 4750 3031 4423 
Q 3450 4097 3450 3541 
Q 3450 3153 3228 2886 
Q 3006 2619 2597 2516 
z
" transform="scale(0.015625)"/>
       </defs>
       <use xlink:href="#DejaVuSans-70"/>
       <use xlink:href="#DejaVuSans-6f" x="63.476562"/>
       <use xlink:href="#DejaVuSans-73" x="124.658203"/>
       <use xlink:href="#DejaVuSans-33" x="176.757812"/>
      </g>
     </g>
    </g>
    <g id="xtick_5">
     <g id="line2d_5">
      <g>
       <use xlink:href="#mc21d5dddb1" x="245.171358" y="239.954024" style="stroke: #000000; stroke-width: 3"/>
      </g>
     </g>
     <g id="text_5">
      <!-- pi-bridge -->
      <g transform="translate(227.539798 335.186227) rotate(-60) scale(0.2 -0.2)">
       <defs>
        <path id="DejaVuSans-69" d="M 603 3500 
L 1178 3500 
L 1178 0 
L 603 0 
L 603 3500 
z
M 603 4863 
L 1178 4863 
L 1178 4134 
L 603 4134 
L 603 4863 
z
" transform="scale(0.015625)"/>
        <path id="DejaVuSans-2d" d="M 313 2009 
L 1997 2009 
L 1997 1497 
L 313 1497 
L 313 2009 
z
" transform="scale(0.015625)"/>
        <path id="DejaVuSans-62" d="M 3116 1747 
Q 3116 2381 2855 2742 
Q 2594 3103 2138 3103 
Q 1681 3103 1420 2742 
Q 1159 2381 1159 1747 
Q 1159 1113 1420 752 
Q 1681 391 2138 391 
Q 2594 391 2855 752 
Q 3116 1113 3116 1747 
z
M 1159 2969 
Q 1341 3281 1617 3432 
Q 1894 3584 2278 3584 
Q 2916 3584 3314 3078 
Q 3713 2572 3713 1747 
Q 3713 922 3314 415 
Q 2916 -91 2278 -91 
Q 1894 -91 1617 61 
Q 1341 213 1159 525 
L 1159 0 
L 581 0 
L 581 4863 
L 1159 4863 
L 1159 2969 
z
" transform="scale(0.015625)"/>
        <path id="DejaVuSans-72" d="M 2631 2963 
Q 2534 3019 2420 3045 
Q 2306 3072 2169 3072 
Q 1681 3072 1420 2755 
Q 1159 2438 1159 1844 
L 1159 0 
L 581 0 
L 581 3500 
L 1159 3500 
L 1159 2956 
Q 1341 3275 1631 3429 
Q 1922 3584 2338 3584 
Q 2397 3584 2469 3576 
Q 2541 3569 2628 3553 
L 2631 2963 
z
" transform="scale(0.015625)"/>
        <path id="DejaVuSans-64" d="M 2906 2969 
L 2906 4863 
L 3481 4863 
L 3481 0 
L 2906 0 
L 2906 525 
Q 2725 213 2448 61 
Q 2172 -91 1784 -91 
Q 1150 -91 751 415 
Q 353 922 353 1747 
Q 353 2572 751 3078 
Q 1150 3584 1784 3584 
Q 2172 3584 2448 3432 
Q 2725 3281 2906 2969 
z
M 947 1747 
Q 947 1113 1208 752 
Q 1469 391 1925 391 
Q 2381 391 2643 752 
Q 2906 1113 2906 1747 
Q 2906 2381 2643 2742 
Q 2381 3103 1925 3103 
Q 1469 3103 1208 2742 
Q 947 2381 947 1747 
z
" transform="scale(0.015625)"/>
        <path id="DejaVuSans-67" d="M 2906 1791 
Q 2906 2416 2648 2759 
Q 2391 3103 1925 3103 
Q 1463 3103 1205 2759 
Q 947 2416 947 1791 
Q 947 1169 1205 825 
Q 1463 481 1925 481 
Q 2391 481 2648 825 
Q 2906 1169 2906 1791 
z
M 3481 434 
Q 3481 -459 3084 -895 
Q 2688 -1331 1869 -1331 
Q 1566 -1331 1297 -1286 
Q 1028 -1241 775 -1147 
L 775 -588 
Q 1028 -725 1275 -790 
Q 1522 -856 1778 -856 
Q 2344 -856 2625 -561 
Q 2906 -266 2906 331 
L 2906 616 
Q 2728 306 2450 153 
Q 2172 0 1784 0 
Q 1141 0 747 490 
Q 353 981 353 1791 
Q 353 2603 747 3093 
Q 1141 3584 1784 3584 
Q 2172 3584 2450 3431 
Q 2728 3278 2906 2969 
L 2906 3500 
L 3481 3500 
L 3481 434 
z
" transform="scale(0.015625)"/>
        <path id="DejaVuSans-65" d="M 3597 1894 
L 3597 1613 
L 953 1613 
Q 991 1019 1311 708 
Q 1631 397 2203 397 
Q 2534 397 2845 478 
Q 3156 559 3463 722 
L 3463 178 
Q 3153 47 2828 -22 
Q 2503 -91 2169 -91 
Q 1331 -91 842 396 
Q 353 884 353 1716 
Q 353 2575 817 3079 
Q 1281 3584 2069 3584 
Q 2775 3584 3186 3129 
Q 3597 2675 3597 1894 
z
M 3022 2063 
Q 3016 2534 2758 2815 
Q 2500 3097 2075 3097 
Q 1594 3097 1305 2825 
Q 1016 2553 972 2059 
L 3022 2063 
z
" transform="scale(0.015625)"/>
       </defs>
       <use xlink:href="#DejaVuSans-70"/>
       <use xlink:href="#DejaVuSans-69" x="63.476562"/>
       <use xlink:href="#DejaVuSans-2d" x="91.259766"/>
       <use xlink:href="#DejaVuSans-62" x="127.34375"/>
       <use xlink:href="#DejaVuSans-72" x="190.820312"/>
       <use xlink:href="#DejaVuSans-69" x="231.933594"/>
       <use xlink:href="#DejaVuSans-64" x="259.716797"/>
       <use xlink:href="#DejaVuSans-67" x="323.193359"/>
       <use xlink:href="#DejaVuSans-65" x="386.669922"/>
      </g>
     </g>
    </g>
    <g id="xtick_6">
     <g id="line2d_6">
      <g>
       <use xlink:href="#mc21d5dddb1" x="280.950453" y="239.954024" style="stroke: #000000; stroke-width: 3"/>
      </g>
     </g>
     <g id="text_6">
      <!-- end-group -->
      <g transform="translate(259.986862 346.728722) rotate(-60) scale(0.2 -0.2)">
       <defs>
        <path id="DejaVuSans-6e" d="M 3513 2113 
L 3513 0 
L 2938 0 
L 2938 2094 
Q 2938 2591 2744 2837 
Q 2550 3084 2163 3084 
Q 1697 3084 1428 2787 
Q 1159 2491 1159 1978 
L 1159 0 
L 581 0 
L 581 3500 
L 1159 3500 
L 1159 2956 
Q 1366 3272 1645 3428 
Q 1925 3584 2291 3584 
Q 2894 3584 3203 3211 
Q 3513 2838 3513 2113 
z
" transform="scale(0.015625)"/>
        <path id="DejaVuSans-75" d="M 544 1381 
L 544 3500 
L 1119 3500 
L 1119 1403 
Q 1119 906 1312 657 
Q 1506 409 1894 409 
Q 2359 409 2629 706 
Q 2900 1003 2900 1516 
L 2900 3500 
L 3475 3500 
L 3475 0 
L 2900 0 
L 2900 538 
Q 2691 219 2414 64 
Q 2138 -91 1772 -91 
Q 1169 -91 856 284 
Q 544 659 544 1381 
z
M 1991 3584 
L 1991 3584 
z
" transform="scale(0.015625)"/>
       </defs>
       <use xlink:href="#DejaVuSans-65"/>
       <use xlink:href="#DejaVuSans-6e" x="61.523438"/>
       <use xlink:href="#DejaVuSans-64" x="124.902344"/>
       <use xlink:href="#DejaVuSans-2d" x="188.378906"/>
       <use xlink:href="#DejaVuSans-67" x="224.462891"/>
       <use xlink:href="#DejaVuSans-72" x="287.939453"/>
       <use xlink:href="#DejaVuSans-6f" x="326.802734"/>
       <use xlink:href="#DejaVuSans-75" x="387.984375"/>
       <use xlink:href="#DejaVuSans-70" x="451.363281"/>
      </g>
     </g>
    </g>
    <g id="xtick_7">
     <g id="line2d_7">
      <g>
       <use xlink:href="#mc21d5dddb1" x="316.729547" y="239.954024" style="stroke: #000000; stroke-width: 3"/>
      </g>
     </g>
     <g id="text_7">
      <!-- side-chain -->
      <g transform="translate(295.920644 346.192868) rotate(-60) scale(0.2 -0.2)">
       <defs>
        <path id="DejaVuSans-63" d="M 3122 3366 
L 3122 2828 
Q 2878 2963 2633 3030 
Q 2388 3097 2138 3097 
Q 1578 3097 1268 2742 
Q 959 2388 959 1747 
Q 959 1106 1268 751 
Q 1578 397 2138 397 
Q 2388 397 2633 464 
Q 2878 531 3122 666 
L 3122 134 
Q 2881 22 2623 -34 
Q 2366 -91 2075 -91 
Q 1284 -91 818 406 
Q 353 903 353 1747 
Q 353 2603 823 3093 
Q 1294 3584 2113 3584 
Q 2378 3584 2631 3529 
Q 2884 3475 3122 3366 
z
" transform="scale(0.015625)"/>
        <path id="DejaVuSans-68" d="M 3513 2113 
L 3513 0 
L 2938 0 
L 2938 2094 
Q 2938 2591 2744 2837 
Q 2550 3084 2163 3084 
Q 1697 3084 1428 2787 
Q 1159 2491 1159 1978 
L 1159 0 
L 581 0 
L 581 4863 
L 1159 4863 
L 1159 2956 
Q 1366 3272 1645 3428 
Q 1925 3584 2291 3584 
Q 2894 3584 3203 3211 
Q 3513 2838 3513 2113 
z
" transform="scale(0.015625)"/>
        <path id="DejaVuSans-61" d="M 2194 1759 
Q 1497 1759 1228 1600 
Q 959 1441 959 1056 
Q 959 750 1161 570 
Q 1363 391 1709 391 
Q 2188 391 2477 730 
Q 2766 1069 2766 1631 
L 2766 1759 
L 2194 1759 
z
M 3341 1997 
L 3341 0 
L 2766 0 
L 2766 531 
Q 2569 213 2275 61 
Q 1981 -91 1556 -91 
Q 1019 -91 701 211 
Q 384 513 384 1019 
Q 384 1609 779 1909 
Q 1175 2209 1959 2209 
L 2766 2209 
L 2766 2266 
Q 2766 2663 2505 2880 
Q 2244 3097 1772 3097 
Q 1472 3097 1187 3025 
Q 903 2953 641 2809 
L 641 3341 
Q 956 3463 1253 3523 
Q 1550 3584 1831 3584 
Q 2591 3584 2966 3190 
Q 3341 2797 3341 1997 
z
" transform="scale(0.015625)"/>
       </defs>
       <use xlink:href="#DejaVuSans-73"/>
       <use xlink:href="#DejaVuSans-69" x="52.099609"/>
       <use xlink:href="#DejaVuSans-64" x="79.882812"/>
       <use xlink:href="#DejaVuSans-65" x="143.359375"/>
       <use xlink:href="#DejaVuSans-2d" x="204.882812"/>
       <use xlink:href="#DejaVuSans-63" x="240.966797"/>
       <use xlink:href="#DejaVuSans-68" x="295.947266"/>
       <use xlink:href="#DejaVuSans-61" x="359.326172"/>
       <use xlink:href="#DejaVuSans-69" x="420.605469"/>
       <use xlink:href="#DejaVuSans-6e" x="448.388672"/>
      </g>
     </g>
    </g>
   </g>
   <g id="matplotlib.axis_2">
    <g id="ytick_1">
     <g id="line2d_8">
      <path d="M 81.482 205.397732 
L 337.302527 205.397732 
" clip-path="url(#pf9edcdf67f)" style="fill: none; stroke: #b0b0b0; stroke-width: 0.8; stroke-linecap: square"/>
     </g>
     <g id="line2d_9">
      <defs>
       <path id="mbf60ae40ba" d="M 0 0 
L 6 0 
" style="stroke: #000000; stroke-width: 3"/>
      </defs>
      <g>
       <use xlink:href="#mbf60ae40ba" x="81.482" y="205.397732" style="stroke: #000000; stroke-width: 3"/>
      </g>
     </g>
     <g id="text_8">
      <!-- 1.5 -->
      <g transform="translate(39.67575 212.99617) scale(0.2 -0.2)">
       <defs>
        <path id="DejaVuSans-2e" d="M 684 794 
L 1344 794 
L 1344 0 
L 684 0 
L 684 794 
z
" transform="scale(0.015625)"/>
        <path id="DejaVuSans-35" d="M 691 4666 
L 3169 4666 
L 3169 4134 
L 1269 4134 
L 1269 2991 
Q 1406 3038 1543 3061 
Q 1681 3084 1819 3084 
Q 2600 3084 3056 2656 
Q 3513 2228 3513 1497 
Q 3513 744 3044 326 
Q 2575 -91 1722 -91 
Q 1428 -91 1123 -41 
Q 819 9 494 109 
L 494 744 
Q 775 591 1075 516 
Q 1375 441 1709 441 
Q 2250 441 2565 725 
Q 2881 1009 2881 1497 
Q 2881 1984 2565 2268 
Q 2250 2553 1709 2553 
Q 1456 2553 1204 2497 
Q 953 2441 691 2322 
L 691 4666 
z
" transform="scale(0.015625)"/>
       </defs>
       <use xlink:href="#DejaVuSans-31"/>
       <use xlink:href="#DejaVuSans-2e" x="63.623047"/>
       <use xlink:href="#DejaVuSans-35" x="95.410156"/>
      </g>
     </g>
    </g>
    <g id="ytick_2">
     <g id="line2d_10">
      <path d="M 81.482 153.861783 
L 337.302527 153.861783 
" clip-path="url(#pf9edcdf67f)" style="fill: none; stroke: #b0b0b0; stroke-width: 0.8; stroke-linecap: square"/>
     </g>
     <g id="line2d_11">
      <g>
       <use xlink:href="#mbf60ae40ba" x="81.482" y="153.861783" style="stroke: #000000; stroke-width: 3"/>
      </g>
     </g>
     <g id="text_9">
      <!-- 2.0 -->
      <g transform="translate(39.67575 161.460221) scale(0.2 -0.2)">
       <use xlink:href="#DejaVuSans-32"/>
       <use xlink:href="#DejaVuSans-2e" x="63.623047"/>
       <use xlink:href="#DejaVuSans-30" x="95.410156"/>
      </g>
     </g>
    </g>
    <g id="ytick_3">
     <g id="line2d_12">
      <path d="M 81.482 102.325834 
L 337.302527 102.325834 
" clip-path="url(#pf9edcdf67f)" style="fill: none; stroke: #b0b0b0; stroke-width: 0.8; stroke-linecap: square"/>
     </g>
     <g id="line2d_13">
      <g>
       <use xlink:href="#mbf60ae40ba" x="81.482" y="102.325834" style="stroke: #000000; stroke-width: 3"/>
      </g>
     </g>
     <g id="text_10">
      <!-- 2.5 -->
      <g transform="translate(39.67575 109.924272) scale(0.2 -0.2)">
       <use xlink:href="#DejaVuSans-32"/>
       <use xlink:href="#DejaVuSans-2e" x="63.623047"/>
       <use xlink:href="#DejaVuSans-35" x="95.410156"/>
      </g>
     </g>
    </g>
    <g id="ytick_4">
     <g id="line2d_14">
      <path d="M 81.482 50.789885 
L 337.302527 50.789885 
" clip-path="url(#pf9edcdf67f)" style="fill: none; stroke: #b0b0b0; stroke-width: 0.8; stroke-linecap: square"/>
     </g>
     <g id="line2d_15">
      <g>
       <use xlink:href="#mbf60ae40ba" x="81.482" y="50.789885" style="stroke: #000000; stroke-width: 3"/>
      </g>
     </g>
     <g id="text_11">
      <!-- 3.0 -->
      <g transform="translate(39.67575 58.388323) scale(0.2 -0.2)">
       <use xlink:href="#DejaVuSans-33"/>
       <use xlink:href="#DejaVuSans-2e" x="63.623047"/>
       <use xlink:href="#DejaVuSans-30" x="95.410156"/>
      </g>
     </g>
    </g>
    <g id="text_12">
     <!-- Chemprop $E_{gap}$ / eV -->
     <g transform="translate(29.47575 223.277012) rotate(-90) scale(0.2 -0.2)">
      <defs>
       <path id="DejaVuSans-43" d="M 4122 4306 
L 4122 3641 
Q 3803 3938 3442 4084 
Q 3081 4231 2675 4231 
Q 1875 4231 1450 3742 
Q 1025 3253 1025 2328 
Q 1025 1406 1450 917 
Q 1875 428 2675 428 
Q 3081 428 3442 575 
Q 3803 722 4122 1019 
L 4122 359 
Q 3791 134 3420 21 
Q 3050 -91 2638 -91 
Q 1578 -91 968 557 
Q 359 1206 359 2328 
Q 359 3453 968 4101 
Q 1578 4750 2638 4750 
Q 3056 4750 3426 4639 
Q 3797 4528 4122 4306 
z
" transform="scale(0.015625)"/>
       <path id="DejaVuSans-6d" d="M 3328 2828 
Q 3544 3216 3844 3400 
Q 4144 3584 4550 3584 
Q 5097 3584 5394 3201 
Q 5691 2819 5691 2113 
L 5691 0 
L 5113 0 
L 5113 2094 
Q 5113 2597 4934 2840 
Q 4756 3084 4391 3084 
Q 3944 3084 3684 2787 
Q 3425 2491 3425 1978 
L 3425 0 
L 2847 0 
L 2847 2094 
Q 2847 2600 2669 2842 
Q 2491 3084 2119 3084 
Q 1678 3084 1418 2786 
Q 1159 2488 1159 1978 
L 1159 0 
L 581 0 
L 581 3500 
L 1159 3500 
L 1159 2956 
Q 1356 3278 1631 3431 
Q 1906 3584 2284 3584 
Q 2666 3584 2933 3390 
Q 3200 3197 3328 2828 
z
" transform="scale(0.015625)"/>
       <path id="DejaVuSans-20" transform="scale(0.015625)"/>
       <path id="DejaVuSans-Oblique-45" d="M 1081 4666 
L 4031 4666 
L 3928 4134 
L 1606 4134 
L 1338 2753 
L 3566 2753 
L 3463 2222 
L 1234 2222 
L 909 531 
L 3284 531 
L 3181 0 
L 172 0 
L 1081 4666 
z
" transform="scale(0.015625)"/>
       <path id="DejaVuSans-Oblique-67" d="M 3816 3500 
L 3219 434 
Q 3047 -456 2561 -893 
Q 2075 -1331 1253 -1331 
Q 950 -1331 690 -1286 
Q 431 -1241 206 -1147 
L 313 -588 
Q 525 -725 762 -790 
Q 1000 -856 1269 -856 
Q 1816 -856 2167 -557 
Q 2519 -259 2631 300 
L 2681 563 
Q 2441 288 2122 144 
Q 1803 0 1434 0 
Q 903 0 598 351 
Q 294 703 294 1319 
Q 294 1803 478 2267 
Q 663 2731 997 3091 
Q 1219 3328 1514 3456 
Q 1809 3584 2131 3584 
Q 2484 3584 2746 3420 
Q 3009 3256 3138 2956 
L 3238 3500 
L 3816 3500 
z
M 2950 2216 
Q 2950 2641 2750 2872 
Q 2550 3103 2181 3103 
Q 1953 3103 1747 3012 
Q 1541 2922 1394 2759 
Q 1156 2491 1023 2127 
Q 891 1763 891 1375 
Q 891 944 1092 712 
Q 1294 481 1672 481 
Q 2219 481 2584 976 
Q 2950 1472 2950 2216 
z
" transform="scale(0.015625)"/>
       <path id="DejaVuSans-Oblique-61" d="M 3438 1997 
L 3047 0 
L 2472 0 
L 2578 531 
Q 2325 219 2001 64 
Q 1678 -91 1281 -91 
Q 834 -91 548 182 
Q 263 456 263 884 
Q 263 1497 752 1853 
Q 1241 2209 2100 2209 
L 2900 2209 
L 2931 2363 
Q 2938 2388 2941 2417 
Q 2944 2447 2944 2509 
Q 2944 2788 2717 2942 
Q 2491 3097 2081 3097 
Q 1800 3097 1504 3025 
Q 1209 2953 897 2809 
L 997 3341 
Q 1322 3463 1633 3523 
Q 1944 3584 2234 3584 
Q 2853 3584 3176 3315 
Q 3500 3047 3500 2534 
Q 3500 2431 3484 2292 
Q 3469 2153 3438 1997 
z
M 2816 1759 
L 2241 1759 
Q 1534 1759 1195 1570 
Q 856 1381 856 984 
Q 856 709 1029 553 
Q 1203 397 1509 397 
Q 1978 397 2328 733 
Q 2678 1069 2791 1631 
L 2816 1759 
z
" transform="scale(0.015625)"/>
       <path id="DejaVuSans-Oblique-70" d="M 3175 2156 
Q 3175 2616 2975 2859 
Q 2775 3103 2400 3103 
Q 2144 3103 1911 2972 
Q 1678 2841 1497 2591 
Q 1319 2344 1212 1994 
Q 1106 1644 1106 1300 
Q 1106 863 1306 627 
Q 1506 391 1875 391 
Q 2147 391 2380 519 
Q 2613 647 2778 891 
Q 2956 1147 3065 1494 
Q 3175 1841 3175 2156 
z
M 1394 2969 
Q 1625 3272 1939 3428 
Q 2253 3584 2638 3584 
Q 3175 3584 3472 3232 
Q 3769 2881 3769 2247 
Q 3769 1728 3584 1258 
Q 3400 788 3053 416 
Q 2822 169 2531 39 
Q 2241 -91 1919 -91 
Q 1547 -91 1294 64 
Q 1041 219 916 525 
L 556 -1331 
L -19 -1331 
L 922 3500 
L 1497 3500 
L 1394 2969 
z
" transform="scale(0.015625)"/>
       <path id="DejaVuSans-2f" d="M 1625 4666 
L 2156 4666 
L 531 -594 
L 0 -594 
L 1625 4666 
z
" transform="scale(0.015625)"/>
       <path id="DejaVuSans-56" d="M 1831 0 
L 50 4666 
L 709 4666 
L 2188 738 
L 3669 4666 
L 4325 4666 
L 2547 0 
L 1831 0 
z
" transform="scale(0.015625)"/>
      </defs>
      <use xlink:href="#DejaVuSans-43" transform="translate(0 0.015625)"/>
      <use xlink:href="#DejaVuSans-68" transform="translate(69.824219 0.015625)"/>
      <use xlink:href="#DejaVuSans-65" transform="translate(133.203125 0.015625)"/>
      <use xlink:href="#DejaVuSans-6d" transform="translate(194.726562 0.015625)"/>
      <use xlink:href="#DejaVuSans-70" transform="translate(292.138672 0.015625)"/>
      <use xlink:href="#DejaVuSans-72" transform="translate(355.615234 0.015625)"/>
      <use xlink:href="#DejaVuSans-6f" transform="translate(396.728516 0.015625)"/>
      <use xlink:href="#DejaVuSans-70" transform="translate(457.910156 0.015625)"/>
      <use xlink:href="#DejaVuSans-20" transform="translate(521.386719 0.015625)"/>
      <use xlink:href="#DejaVuSans-Oblique-45" transform="translate(553.173828 0.015625)"/>
      <use xlink:href="#DejaVuSans-Oblique-67" transform="translate(616.357422 -16.390625) scale(0.7)"/>
      <use xlink:href="#DejaVuSans-Oblique-61" transform="translate(660.791016 -16.390625) scale(0.7)"/>
      <use xlink:href="#DejaVuSans-Oblique-70" transform="translate(703.686523 -16.390625) scale(0.7)"/>
      <use xlink:href="#DejaVuSans-20" transform="translate(750.854492 0.015625)"/>
      <use xlink:href="#DejaVuSans-2f" transform="translate(782.641602 0.015625)"/>
      <use xlink:href="#DejaVuSans-20" transform="translate(816.333008 0.015625)"/>
      <use xlink:href="#DejaVuSans-65" transform="translate(848.120117 0.015625)"/>
      <use xlink:href="#DejaVuSans-56" transform="translate(909.643555 0.015625)"/>
     </g>
    </g>
   </g>
   <g id="LineCollection_1">
    <path d="M 97.582593 21.216092 
L 106.527366 21.216092 
" clip-path="url(#pf9edcdf67f)" style="fill: none; stroke: #6a5acd; stroke-width: 1.5"/>
    <path d="M 133.361687 21.216092 
L 142.306461 21.216092 
" clip-path="url(#pf9edcdf67f)" style="fill: none; stroke: #6a5acd; stroke-width: 1.5"/>
    <path d="M 169.140782 21.216092 
L 178.085556 21.216092 
" clip-path="url(#pf9edcdf67f)" style="fill: none; stroke: #6a5acd; stroke-width: 1.5"/>
    <path d="M 204.919877 21.216092 
L 213.86465 21.216092 
" clip-path="url(#pf9edcdf67f)" style="fill: none; stroke: #6a5acd; stroke-width: 1.5"/>
    <path d="M 240.698971 72.517607 
L 249.643745 72.517607 
" clip-path="url(#pf9edcdf67f)" style="fill: none; stroke: #6a5acd; stroke-width: 1.5"/>
    <path d="M 276.478066 135.324372 
L 285.42284 135.324372 
" clip-path="url(#pf9edcdf67f)" style="fill: none; stroke: #6a5acd; stroke-width: 1.5"/>
    <path d="M 312.257161 176.370193 
L 321.201934 176.370193 
" clip-path="url(#pf9edcdf67f)" style="fill: none; stroke: #6a5acd; stroke-width: 1.5"/>
   </g>
   <g id="LineCollection_2">
    <path d="M 97.582593 229.537932 
L 106.527366 229.537932 
" clip-path="url(#pf9edcdf67f)" style="fill: none; stroke: #6a5acd; stroke-width: 1.5"/>
    <path d="M 133.361687 229.537932 
L 142.306461 229.537932 
" clip-path="url(#pf9edcdf67f)" style="fill: none; stroke: #6a5acd; stroke-width: 1.5"/>
    <path d="M 169.140782 229.537932 
L 178.085556 229.537932 
" clip-path="url(#pf9edcdf67f)" style="fill: none; stroke: #6a5acd; stroke-width: 1.5"/>
    <path d="M 204.919877 229.537932 
L 213.86465 229.537932 
" clip-path="url(#pf9edcdf67f)" style="fill: none; stroke: #6a5acd; stroke-width: 1.5"/>
    <path d="M 240.698971 229.537932 
L 249.643745 229.537932 
" clip-path="url(#pf9edcdf67f)" style="fill: none; stroke: #6a5acd; stroke-width: 1.5"/>
    <path d="M 276.478066 229.537932 
L 285.42284 229.537932 
" clip-path="url(#pf9edcdf67f)" style="fill: none; stroke: #6a5acd; stroke-width: 1.5"/>
    <path d="M 312.257161 229.537932 
L 321.201934 229.537932 
" clip-path="url(#pf9edcdf67f)" style="fill: none; stroke: #6a5acd; stroke-width: 1.5"/>
   </g>
   <g id="LineCollection_3">
    <path d="M 102.054979 229.537932 
L 102.054979 21.216092 
" clip-path="url(#pf9edcdf67f)" style="fill: none; stroke: #6a5acd; stroke-width: 1.5"/>
    <path d="M 137.834074 229.537932 
L 137.834074 21.216092 
" clip-path="url(#pf9edcdf67f)" style="fill: none; stroke: #6a5acd; stroke-width: 1.5"/>
    <path d="M 173.613169 229.537932 
L 173.613169 21.216092 
" clip-path="url(#pf9edcdf67f)" style="fill: none; stroke: #6a5acd; stroke-width: 1.5"/>
    <path d="M 209.392263 229.537932 
L 209.392263 21.216092 
" clip-path="url(#pf9edcdf67f)" style="fill: none; stroke: #6a5acd; stroke-width: 1.5"/>
    <path d="M 245.171358 229.537932 
L 245.171358 72.517607 
" clip-path="url(#pf9edcdf67f)" style="fill: none; stroke: #6a5acd; stroke-width: 1.5"/>
    <path d="M 280.950453 229.537932 
L 280.950453 135.324372 
" clip-path="url(#pf9edcdf67f)" style="fill: none; stroke: #6a5acd; stroke-width: 1.5"/>
    <path d="M 316.729547 229.537932 
L 316.729547 176.370193 
" clip-path="url(#pf9edcdf67f)" style="fill: none; stroke: #6a5acd; stroke-width: 1.5"/>
   </g>
   <g id="LineCollection_4">
    <path d="M 97.582593 103.009197 
L 106.527366 103.009197 
" clip-path="url(#pf9edcdf67f)" style="fill: none; stroke: #6a5acd; stroke-width: 1.5"/>
    <path d="M 133.361687 103.009197 
L 142.306461 103.009197 
" clip-path="url(#pf9edcdf67f)" style="fill: none; stroke: #6a5acd; stroke-width: 1.5"/>
    <path d="M 169.140782 103.009197 
L 178.085556 103.009197 
" clip-path="url(#pf9edcdf67f)" style="fill: none; stroke: #6a5acd; stroke-width: 1.5"/>
    <path d="M 204.919877 117.075992 
L 213.86465 117.075992 
" clip-path="url(#pf9edcdf67f)" style="fill: none; stroke: #6a5acd; stroke-width: 1.5"/>
    <path d="M 240.698971 168.423502 
L 249.643745 168.423502 
" clip-path="url(#pf9edcdf67f)" style="fill: none; stroke: #6a5acd; stroke-width: 1.5"/>
    <path d="M 276.478066 176.905149 
L 285.42284 176.905149 
" clip-path="url(#pf9edcdf67f)" style="fill: none; stroke: #6a5acd; stroke-width: 1.5"/>
    <path d="M 312.257161 205.215832 
L 321.201934 205.215832 
" clip-path="url(#pf9edcdf67f)" style="fill: none; stroke: #6a5acd; stroke-width: 1.5"/>
   </g>
   <g id="patch_3">
    <path d="M 81.482 239.954024 
L 81.482 10.8 
" style="fill: none; stroke: #000000; stroke-linejoin: miter; stroke-linecap: square"/>
   </g>
   <g id="patch_4">
    <path d="M 337.302527 239.954024 
L 337.302527 10.8 
" style="fill: none; stroke: #000000; stroke-linejoin: miter; stroke-linecap: square"/>
   </g>
   <g id="patch_5">
    <path d="M 81.482 239.954024 
L 337.302527 239.954024 
" style="fill: none; stroke: #000000; stroke-linejoin: miter; stroke-linecap: square"/>
   </g>
   <g id="patch_6">
    <path d="M 81.482 10.8 
L 337.302527 10.8 
" style="fill: none; stroke: #000000; stroke-linejoin: miter; stroke-linecap: square"/>
   </g>
  </g>
 </g>
 <defs>
  <clipPath id="pf9edcdf67f">
   <rect x="81.482" y="10.8" width="255.820527" height="229.154024"/>
  </clipPath>
 </defs>
</svg>
